<svg version="1.2" xmlns="http://www.w3.org/2000/svg" viewBox="60 55 122 132" width="100%" height="100%">
	<path fill="#eb003b" d="m62.4 71.3h53.8c1-12.9 7.4-25.8 25.1-25.8 14.8 0 24.2 8.7 24.2 24.5 0 21.2-18.1 25.7-36.7 25.7h-10.3v44.8h10.3c28.6 0 41.2 8.4 41.2 29.3 0 15.5-9.4 26.4-26.4 26.4-20.3 0-30.3-12.2-30.6-30.6h-53.5c1.6 53.1 37.1 76.3 86 76.3 49.3 0 77.6-28.3 77.6-67.9 0-30.9-16.1-49-39.6-56.7v-1.3c16.1-5.4 35.4-21.9 35.4-52.8 0-35.4-26.7-63.7-76.3-63.7-48 0-78.2 25.4-80.2 71.8z"/>
</svg>