<svg version="1.2" xmlns="http://www.w3.org/2000/svg" viewBox="60 55 120 130" width="100%" height="100%">
	<path fill="#eb003b" d="m86.5 112.3c-22.3 10.5-35.3 30.3-35.3 56.6 0 46.5 38.5 72.6 85.8 72.6 47.4 0 85.9-26.1 85.9-72.6 0-26.3-13-45.7-35.6-56.6 17.5-9.2 29.9-26 29.9-49.9 0-33.1-25.5-62.3-80.2-62.3-54.7 0-80.4 29.2-80.4 62.3 0 24.5 12.1 40.4 29.9 49.9zm50.5-14.6c-15.5 0-27.3-9.8-27.3-26.7 0-17.8 11.1-27.7 27.3-27.7 16.3 0 27.4 9.9 27.4 27.4 0 16.8-11.8 27-27.4 27zm0 38.2c19.4 0 32.8 11.4 32.8 30.5 0 17.2-12.1 30.5-32.8 30.5-21 0-33.4-13-33.4-30.5 0-19.7 14-30.5 33.4-30.5z"/>
</svg>