<?xml version="1.0" standalone="no"?>
<!DOCTYPE svg PUBLIC "-//W3C//DTD SVG 20010904//EN"
 "http://www.w3.org/TR/2001/REC-SVG-20010904/DTD/svg10.dtd">
<svg version="1.0" xmlns="http://www.w3.org/2000/svg"
 width="1rem" height="1rem" viewBox="0 0 512.000000 512.000000"
 preserveAspectRatio="xMidYMid meet">

<g transform="translate(0.000000,512.000000) scale(0.100000,-0.100000)"
fill="#3c424d" stroke="none">
<path d="M1450 5105 c-330 -67 -572 -312 -636 -643 -11 -56 -14 -171 -14 -483
l0 -409 -133 0 c-229 0 -354 -46 -487 -180 -87 -86 -131 -163 -160 -276 -19
-73 -20 -113 -20 -729 0 -616 1 -656 20 -729 29 -113 73 -190 160 -276 86 -87
163 -131 276 -160 74 -19 114 -20 991 -20 l913 0 0 -400 0 -400 -500 0 -500 0
0 -200 0 -200 1200 0 1200 0 0 200 0 200 -500 0 -500 0 0 400 0 400 913 0
c877 0 917 1 991 20 113 29 190 73 276 160 87 86 131 163 160 276 19 73 20
113 20 729 0 616 -1 656 -20 729 -29 113 -73 190 -160 276 -133 134 -258 180
-486 180 l-133 0 -3 443 c-4 471 -4 464 -58 609 -29 77 -104 191 -175 261 -68
70 -184 148 -263 177 -155 58 -74 55 -1237 57 -855 1 -1083 -1 -1135 -12z
m2232 -422 c93 -44 151 -100 196 -191 l37 -76 3 -1013 c1 -557 1 -1013 0
-1013 -2 0 -35 7 -73 15 -105 22 -2465 22 -2570 0 -38 -8 -71 -15 -73 -15 -1
0 -1 456 0 1013 l3 1012 32 67 c17 37 50 87 72 111 44 48 135 101 197 116 23
5 470 9 1074 8 l1035 -2 67 -32z m-2882 -2299 l0 -786 -132 4 c-119 3 -137 5
-171 27 -21 13 -50 42 -65 64 l-27 41 -3 628 c-2 428 1 642 8 669 13 49 76
114 122 128 18 5 86 10 151 10 l117 1 0 -786z m3823 757 c21 -13 50 -42 65
-64 l27 -41 0 -651 0 -651 -27 -41 c-15 -22 -44 -51 -65 -64 -34 -22 -52 -24
-170 -27 l-133 -4 0 787 0 787 133 -4 c118 -3 136 -5 170 -27z m-800 -1150
c21 -13 50 -42 65 -64 26 -38 27 -48 30 -184 l4 -143 -1361 0 -1361 0 0 123
c0 67 5 139 11 160 13 47 76 113 121 126 20 6 497 9 1243 8 l1210 -2 38 -24z"/>
</g>
</svg>
